<svg xmlns="http://www.w3.org/2000/svg" viewBox="0 0 292 292"><defs><style>.cls-1{fill:#f2992f;}.cls-2{fill:#fff;}</style></defs><g id="Layer_2" data-name="Layer 2"><g id="Layer_1-2" data-name="Layer 1"><circle class="cls-1" cx="146" cy="146" r="146"/><path class="cls-2" d="M214.91,188.27c-2.31-8.45-5.45-16.42-10.52-23.3,1.68-2.93,3.41-5.74,4.94-8.65A55.13,55.13,0,0,0,215.06,138a59.27,59.27,0,0,0-5.55-34.15A52.66,52.66,0,0,0,186.4,79.41,54.5,54.5,0,0,0,164.07,73c-3.73-.24-7.48-.37-11.22-.47q-7.57-.19-15.15-.23c-4.48,0-9,0-13.44.08q-9.06.11-18.13.24c-1.37,0-2.73.14-4.17.21V187.56h1.36c19.24,0,38.47,0,57.7-.05A8,8,0,0,1,168,191a16.19,16.19,0,0,1,3,8.72c.21,3.37-1.41,5.83-3.63,8-.47.45-1,.82-1.53,1.24a7.92,7.92,0,0,1-5.11,2c-2.25,0-4.5.27-6.76.27q-25.28,0-50.56,0h-1.46v1.5c0,11,0,22,0,33,0,1.08-.28,1.37-1.34,1.36-8.27,0-16.54,0-24.82,0-.37,0-.75,0-1.19-.06V45.78h1.21c28.53,0,57.08-.26,85.61.11,13.94.18,27.59,2.71,40.19,9.44A70,70,0,0,1,228.9,81.38a92.84,92.84,0,0,1,12.71,38.32c2.24,20.24-3,38.44-14.94,54.6-3.45,4.66-7.4,8.94-11.13,13.39A5.27,5.27,0,0,1,214.91,188.27Z"/><path class="cls-2" d="M111,247v-26.4h1.29c13.1,0,26.2,0,39.3,0,3.7,0,7.4-.26,11.1-.46,3.49-.19,6.3-2,8.95-4.11,4.22-3.37,7.33-7.49,8.14-13.08,1.17-8-3-20.84-14.12-24.22a6.85,6.85,0,0,0-1.9-.3H111V81.88c.45,0,.9-.12,1.35-.12l17.8-.13c4.93,0,9.88-.21,14.81-.08,7,.18,14.15.14,21.14,1C181,84.31,192.43,91.89,200,105.21a50.08,50.08,0,0,1,6.43,22.13,48.91,48.91,0,0,1-9.48,32c-1.11,1.55-2.21,3.1-3.39,4.59a1.1,1.1,0,0,0,0,1.6c3,4.08,6.13,8.08,8.21,12.78,3.6,8.11,6.16,16.47,5.9,25.51A43.89,43.89,0,0,1,204,220.27,47.29,47.29,0,0,1,187,241a38.68,38.68,0,0,1-19.24,6.47c-4.18.31-8.4.33-12.6.38-5.66.06-11.32,0-17,0-3.33,0-6.66.21-10,.08C122.46,247.73,116.77,247.32,111,247Zm26.91-95.76c8,0,16-.09,23.95,0a15.42,15.42,0,0,0,9.36-3.23c3.73-2.65,5.94-6.44,7.38-10.73,1.54-4.57,2-9.19.39-13.87a21.61,21.61,0,0,0-7.37-9.92c-2.39-1.9-4.94-3.6-8-4a70.56,70.56,0,0,0-7.41-.5c-4.32-.08-8.63,0-12.95,0h-5.31Z"/></g></g></svg>